<?xml version="1.0" standalone="no"?>
<!DOCTYPE svg PUBLIC "-//W3C//DTD SVG 20010904//EN"
    "http://www.w3.org/TR/2001/REC-SVG-20010904/DTD/svg10.dtd">
<svg version="1.0" xmlns="http://www.w3.org/2000/svg"
     width="200.000000pt" height="200.000000pt" viewBox="0 0 200.000000 200.000000"
     preserveAspectRatio="xMidYMid meet">

    <g transform="translate(0.000000,200.000000) scale(0.100000,-0.100000)"
       fill="#000000" stroke="none">
        <path d="M495 1282 l-80 -17 -3 -39 c-2 -27 2 -44 16 -60 11 -11 27 -48 37
-81 44 -156 87 -190 235 -190 72 0 91 4 123 24 52 32 91 88 117 167 21 63 23
65 52 62 28 -3 33 -9 55 -70 48 -129 122 -181 260 -180 54 0 73 5 111 29 55
34 77 68 104 165 11 40 26 80 34 89 8 8 14 29 14 46 0 27 -4 32 -42 42 -144
38 -221 40 -375 10 -119 -23 -208 -22 -343 5 -97 19 -215 19 -315 -2z m356
-49 l54 -28 0 -55 c-1 -71 -33 -139 -88 -182 -39 -32 -45 -33 -128 -33 -84 0
-89 1 -119 30 -19 19 -38 52 -50 93 -49 157 -10 199 186 201 80 1 97 -2 145
-26z m579 5 c56 -29 65 -58 44 -148 -27 -119 -70 -160 -170 -160 -108 0 -184
56 -217 161 -22 68 -21 83 6 114 30 35 100 53 207 54 70 1 94 -3 130 -21z"/>
        <path d="M550 850 c0 -5 5 -10 10 -10 6 0 10 -8 10 -18 0 -15 -6 -18 -29 -14
-20 3 -35 -2 -50 -17 -25 -25 -27 -49 -6 -78 12 -18 25 -21 70 -21 30 0 55 5
55 9 0 5 -4 9 -10 9 -6 0 -10 32 -10 75 0 68 -2 75 -20 75 -11 0 -20 -4 -20
-10z m18 -88 c7 -47 -47 -72 -68 -32 -16 31 4 62 38 58 19 -2 28 -10 30 -26z"/>
        <path d="M1134 839 c-23 -12 -44 -49 -44 -78 0 -10 9 -30 21 -45 22 -28 56
-34 90 -16 30 16 22 30 -10 17 -36 -13 -59 -4 -71 29 -22 56 42 113 72 65 17
-28 28 -26 28 4 0 14 -6 25 -12 25 -7 0 -22 2 -33 5 -11 2 -30 -1 -41 -6z"/>
        <path d="M10 825 c8 -10 11 -36 8 -75 -4 -57 -3 -60 18 -60 13 0 26 5 29 10 3
6 -1 10 -9 10 -12 0 -16 11 -16 45 0 25 2 45 4 45 2 0 18 -25 35 -55 17 -30
35 -55 40 -55 5 0 11 34 13 75 l3 75 -30 0 c-28 -1 -29 -2 -12 -14 13 -10 17
-25 15 -53 l-3 -38 -30 52 c-23 41 -36 53 -54 53 -20 0 -21 -2 -11 -15z"/>
        <path d="M680 810 c0 -32 14 -40 24 -14 10 27 7 44 -9 44 -10 0 -15 -10 -15
-30z"/>
        <path d="M185 796 c-25 -18 -25 -74 0 -92 24 -18 66 -18 91 0 17 13 15 14 -31
13 -40 -2 -50 1 -53 16 -3 14 4 17 47 17 38 0 51 4 51 14 0 40 -67 60 -105 32z
m75 -21 c0 -10 -11 -15 -35 -15 -33 0 -43 8 -28 23 13 14 63 7 63 -8z"/>
        <path d="M330 800 c0 -5 5 -10 10 -10 6 0 10 -18 10 -40 0 -29 -4 -40 -15 -40
-8 0 -15 -4 -15 -10 0 -5 23 -10 50 -10 28 0 50 5 50 10 0 6 -11 10 -25 10
-21 0 -25 5 -25 30 0 32 22 50 61 50 18 0 20 3 11 12 -9 9 -19 10 -42 1 -17
-6 -30 -7 -30 -2 0 5 -9 9 -20 9 -11 0 -20 -4 -20 -10z"/>
        <path d="M802 793 c-15 -28 -3 -43 39 -49 23 -4 39 -12 39 -20 0 -17 -51 -19
-68 -2 -15 15 -26 4 -19 -17 8 -20 80 -20 97 0 17 20 8 49 -15 53 -64 9 -69
12 -52 29 14 15 18 15 41 0 25 -17 44 -8 31 13 -11 18 -83 12 -93 -7z"/>
        <path d="M1266 791 c-42 -46 10 -117 71 -95 64 22 48 114 -21 114 -20 0 -40
-8 -50 -19z m88 -23 c14 -23 -3 -52 -33 -56 -42 -6 -67 38 -39 66 17 17 58 11
72 -10z"/>
        <path d="M1410 800 c0 -5 7 -10 15 -10 11 0 15 -11 15 -40 0 -29 -4 -40 -15
-40 -8 0 -15 -4 -15 -10 0 -5 20 -10 44 -10 25 0 48 5 51 10 4 6 -5 10 -19 10
-22 0 -26 5 -26 28 0 34 16 52 47 52 13 0 23 5 23 10 0 14 -43 13 -58 -2 -9
-9 -12 -9 -12 0 0 7 -11 12 -25 12 -14 0 -25 -4 -25 -10z"/>
        <path d="M1560 799 c0 -5 5 -9 10 -9 6 0 10 -18 10 -40 0 -22 -4 -40 -10 -40
-5 0 -10 -4 -10 -10 0 -5 10 -10 23 -10 21 0 23 4 23 48 -1 42 1 47 23 50 23
4 24 2 19 -47 -5 -48 -4 -51 18 -51 25 0 30 9 15 25 -5 6 -11 28 -13 50 l-3
40 -52 1 c-29 1 -53 -2 -53 -7z"/>
        <path d="M1738 799 c-23 -13 -24 -72 -2 -93 19 -20 64 -21 90 -2 17 13 15 14
-31 13 -40 -2 -50 1 -53 16 -3 14 4 17 47 17 38 0 51 4 51 14 0 38 -62 59
-102 35z m80 -26 c2 -9 -9 -13 -37 -13 -39 0 -50 8 -34 24 11 11 66 2 71 -11z"/>
        <path d="M1880 800 c0 -5 5 -10 10 -10 6 0 10 -18 10 -40 0 -29 -4 -40 -15
-40 -8 0 -15 -4 -15 -10 0 -5 23 -10 50 -10 28 0 50 5 50 10 0 6 -11 10 -25
10 -21 0 -25 5 -25 30 0 31 22 50 59 50 12 0 21 5 21 10 0 13 -36 13 -61 0
-13 -7 -19 -7 -19 0 0 5 -9 10 -20 10 -11 0 -20 -4 -20 -10z"/>
        <path d="M665 490 c-3 -6 -15 -10 -26 -10 -19 0 -19 -6 -17 -117 3 -110 4
-118 23 -118 16 0 19 5 16 30 -8 63 -7 68 19 72 37 6 52 25 57 77 5 39 3 47
-13 52 -11 3 -27 10 -36 15 -11 5 -19 5 -23 -1z m37 -54 c6 -29 -8 -56 -27
-56 -11 0 -15 12 -15 40 0 33 4 40 19 40 12 0 20 -9 23 -24z"/>
        <path d="M915 490 l-30 -5 -1 -98 c0 -93 1 -99 24 -118 16 -12 33 -17 46 -13
28 8 26 6 33 48 5 30 3 36 -12 36 -9 0 -19 -9 -22 -20 -11 -41 -26 -13 -28 53
-2 51 1 67 11 67 8 0 14 -7 14 -15 0 -9 9 -15 21 -15 17 0 20 4 14 23 -3 12
-7 27 -7 33 -2 19 -31 30 -63 24z"/>
        <path d="M1572 468 c-15 -24 -20 -50 -20 -98 1 -36 0 -69 -2 -75 -10 -39 1
-53 41 -57 22 -2 43 0 45 4 6 9 17 105 15 128 -1 8 -1 36 -1 63 0 40 -3 47
-20 47 -11 0 -20 5 -20 10 0 20 -19 9 -38 -22z m43 -99 c0 -73 -2 -84 -18 -87
-16 -3 -18 3 -16 55 1 33 0 64 -3 69 -9 15 11 56 24 51 9 -2 13 -29 13 -88z"/>
        <path d="M1306 478 c-11 -35 -26 -108 -31 -148 -4 -25 -9 -52 -11 -61 -8 -30
24 -30 38 -1 19 39 47 41 54 3 7 -33 11 -36 31 -23 10 6 10 22 3 67 -6 33 -13
78 -16 100 -2 21 -10 43 -17 47 -7 4 -7 8 -2 8 14 0 -17 20 -33 20 -7 0 -14
-6 -16 -12z m39 -120 c6 -24 4 -28 -15 -28 -18 0 -21 4 -16 23 3 12 6 29 6 37
0 21 17 0 25 -32z"/>
        <path d="M310 470 c0 -5 -7 -7 -15 -4 -13 5 -15 -7 -15 -79 0 -46 -3 -99 -6
-117 -6 -29 -5 -31 17 -28 22 3 24 7 22 63 0 33 2 64 5 69 9 15 21 -24 21 -71
1 -23 6 -45 12 -48 14 -9 16 -6 23 36 3 19 10 46 15 60 9 23 10 23 10 -8 1
-17 4 -39 8 -49 4 -12 3 -15 -5 -10 -7 4 -12 1 -12 -8 0 -8 6 -18 13 -23 33
-20 36 -12 36 108 1 89 -2 119 -12 119 -21 0 -34 -14 -48 -52 -15 -44 -29 -49
-29 -12 0 14 -5 34 -10 45 -11 20 -30 26 -30 9z"/>
        <path d="M474 438 c4 -24 8 -54 10 -68 3 -27 15 -85 22 -112 6 -21 37 -24 52
-5 13 15 44 206 36 219 -3 4 -12 8 -20 8 -10 0 -14 -12 -14 -37 0 -44 -24
-131 -32 -117 -4 5 -9 32 -13 59 -10 82 -15 95 -32 95 -13 0 -14 -7 -9 -42z"/>
        <path d="M1024 368 c1 -62 5 -119 9 -125 17 -26 27 -12 27 37 0 36 4 50 14 50
11 0 13 -10 9 -40 -4 -31 -2 -41 11 -46 9 -4 18 -5 20 -3 9 9 15 89 7 93 -4 3
-6 30 -3 61 5 67 -7 85 -58 85 l-37 0 1 -112z m64 44 c3 -27 0 -32 -17 -32
-22 0 -25 10 -15 48 9 32 28 22 32 -16z"/>
        <path d="M1416 465 c-6 -16 2 -25 24 -25 14 0 16 -10 13 -67 -1 -38 -5 -78 -8
-91 -5 -21 18 -43 31 -29 3 3 7 45 9 93 3 65 7 89 17 89 7 0 13 9 13 20 0 17
-7 20 -47 22 -31 1 -48 -3 -52 -12z"/>
        <path d="M1679 438 c-2 -60 1 -127 7 -171 8 -55 30 -41 27 17 -2 35 1 46 12
46 11 0 15 -12 15 -46 0 -38 3 -45 18 -42 13 2 18 15 20 51 2 29 -1 47 -8 47
-7 0 -8 6 0 19 14 27 13 94 -2 109 -7 7 -29 12 -50 12 -38 0 -38 0 -39 -42z
m66 -24 c0 -19 -6 -30 -17 -32 -19 -4 -24 21 -12 53 10 25 29 12 29 -21z"/>
        <path d="M1157 388 c-12 -145 -11 -148 22 -148 16 0 37 8 47 17 16 17 16 18
-7 23 -17 4 -25 14 -27 33 -3 23 0 27 22 27 31 0 36 29 6 37 -27 7 -27 49 1
58 30 10 17 30 -23 33 l-35 3 -6 -83z"/>
    </g>
</svg>
